# xmcd CD database file
#
# Track frame offsets:
#	150
#	16285
#	33472
#	49882
#	63870
#	82204
#
# Disc length: 1334 seconds
#
# Revision: 0
# Processed by: cddbd v1.5.2PL0 Copyright (c) Steve Scherf et al.
# Submitted via: CDex 1.51
#
DISCID=49053406
DTITLE=Miu - May I Introduce
DYEAR=2012
DGENRE=Blues
TTITLE0=My Man
TTITLE1=Waitin For You
TTITLE2=Turn Around
TTITLE3=Peter Pan
TTITLE4=You Put A Spell On Me (Explicit)
TTITLE5=Jump Into The Night (Explicit)
EXTD=YEAR: 2012
EXTT0=
EXTT1=
EXTT2=
EXTT3=
EXTT4=
EXTT5=
PLAYORDER=
